<?xml version="1.0" encoding="UTF-8"?>
<svg id="_x31_500_x__x_1500_px_Logo_5" xmlns="http://www.w3.org/2000/svg" version="1.1" viewBox="0 0 1500 1500">
  <!-- Generator: Adobe Illustrator 29.1.0, SVG Export Plug-In . SVG Version: 2.1.0 Build 142)  -->
  <defs>
    <style>
      .st0 {
        fill: #ee2b7b;
      }

      .st1 {
        fill: #fff;
      }

      .st2 {
        fill: #6366f1;
      }

      .st3 {
        display: none;
      }
    </style>
  </defs>
  <g id="Grafikelemente">
    <path class="st2" d="M986.4,57.17l-482.48,278.86c-19.51,11.28-29.26,31-29.26,50.72s9.75,39.44,29.26,50.71l209.68,121.19,282.36-163.19c17.91-10.35,28.94-29.46,28.94-50.14V79.38c0-19.75-21.39-32.09-38.49-22.21Z"/>
    <path class="st2" d="M513.47,1445.21l482.48-278.86c19.51-11.28,29.26-31,29.26-50.72s-9.75-39.44-29.26-50.71l-209.68-121.19-282.36,163.19c-17.91,10.35-28.94,29.46-28.94,50.14v265.93c0,19.75,21.39,32.09,38.49,22.21Z"/>
    <g>
      <path class="st1" d="M558.39,1291.36c-7.21,4.22-13.25,6.41-18.1,6.56-4.85.16-8.54-1.19-11.06-4.04-2.52-2.85-3.86-6.62-4.01-11.3,0-.88.23-1.74.7-2.6.47-.86,1.05-1.49,1.75-1.9l10.36-6.05c1.01-.59,1.76-.76,2.27-.52.5.24.95.64,1.34,1.19.47,1.58,1.36,2.88,2.68,3.91,1.32,1.03,3.12,1.46,5.41,1.29,2.29-.17,5.18-1.28,8.67-3.32,5.59-3.27,9.75-6.87,12.51-10.82,2.75-3.95,4.13-7.91,4.13-11.9,0-2.82-.74-4.65-2.21-5.49-1.47-.84-3.74-1.07-6.81-.69-3.07.38-7.12,1.27-12.16,2.66-5.82,1.65-10.69,2.38-14.6,2.19-3.92-.19-6.87-1.6-8.84-4.24-1.98-2.64-2.97-6.88-2.97-12.72s1.22-11.37,3.67-17.18c2.44-5.81,5.94-11.3,10.47-16.49,4.54-5.18,9.95-9.61,16.23-13.29,5.04-2.95,9.5-4.7,13.38-5.27,3.88-.56,7.1-.21,9.66,1.07,2.56,1.28,4.52,3.1,5.88,5.47,1.36,2.37,2.07,5.04,2.15,8.01,0,.78-.22,1.61-.64,2.49-.43.88-1.03,1.55-1.8,2l-10.82,6.33c-.62.36-1.24.53-1.86.5-.62-.02-1.13-.46-1.51-1.31-.47-2.74-1.98-4.44-4.54-5.08-2.56-.64-5.86.21-9.89,2.57-4.19,2.45-7.56,5.4-10.12,8.84-2.56,3.44-3.84,7.21-3.84,11.29,0,2.72.64,4.61,1.92,5.66,1.28,1.05,3.34,1.43,6.17,1.14,2.83-.29,6.57-1.02,11.23-2.19,6.59-2.01,11.99-3.02,16.18-3.04,4.19-.02,7.25,1.28,9.19,3.89,1.94,2.61,2.91,6.79,2.91,12.53,0,6.42-1.38,12.7-4.13,18.83-2.75,6.13-6.61,11.87-11.58,17.2-4.97,5.34-10.75,9.93-17.34,13.79Z"/>
      <path class="st1" d="M606.33,1261.86c-.78.46-1.44.5-1.98.14-.54-.36-.81-1.03-.81-2v-96.62c0-.97.27-1.96.81-2.96.54-1,1.2-1.72,1.98-2.18l10.36-6.06c.85-.5,1.53-.55,2.04-.17.5.39.76,1.07.76,2.04v33.28c2.09-4.34,4.65-8.36,7.68-12.08,3.03-3.71,6.75-6.87,11.17-9.45,4.73-2.77,8.86-3.84,12.39-3.23,3.53.61,6.26,2.78,8.2,6.51,1.94,3.73,2.91,9,2.91,15.81v41.01c0,.97-.27,1.96-.81,2.96-.54,1-1.2,1.73-1.98,2.18l-10.47,6.12c-.78.45-1.44.5-1.98.13-.54-.36-.81-1.03-.81-2.01v-40.14c0-5.64-1.11-9.43-3.32-11.34-2.21-1.92-5.41-1.65-9.6.8-4.03,2.36-7.27,5.86-9.72,10.5-2.44,4.64-3.67,9.78-3.67,15.43v40.14c0,.97-.25,1.95-.76,2.92-.51.98-1.18,1.71-2.04,2.21l-10.36,6.05Z"/>
      <path class="st1" d="M703.38,1206.58c-6.21,3.63-11.42,5.31-15.65,5.06-4.23-.25-7.45-2.21-9.66-5.88-2.21-3.67-3.47-8.72-3.78-15.16-.08-1.71-.12-3.82-.12-6.35s.04-4.69.12-6.49c.31-6.89,1.61-13.47,3.9-19.72,2.29-6.25,5.55-11.97,9.77-17.17,4.23-5.19,9.37-9.56,15.42-13.1,6.05-3.54,11.19-5.18,15.42-4.93,4.23.25,7.49,2.17,9.78,5.74,2.29,3.58,3.59,8.63,3.9,15.16.08,1.71.12,3.82.12,6.35s-.04,4.7-.12,6.49c-.31,6.8-1.57,13.32-3.78,19.58-2.21,6.25-5.43,11.98-9.66,17.18s-9.45,9.61-15.65,13.24ZM703.38,1192.13c4.11-2.4,7.29-5.89,9.54-10.47,2.25-4.57,3.49-10.09,3.72-16.55.08-1.5.12-3.43.12-5.76s-.04-4.21-.12-5.62c-.23-6.09-1.47-10.13-3.72-12.13-2.25-1.99-5.43-1.79-9.54.62-4.11,2.4-7.29,5.92-9.54,10.54-2.25,4.62-3.49,10.12-3.72,16.48-.08,1.51-.12,3.43-.12,5.76s.04,4.21.12,5.62c.23,6.19,1.47,10.26,3.72,12.2,2.25,1.95,5.43,1.71,9.54-.69Z"/>
      <path class="st1" d="M748.42,1206.53c-.78.45-1.44.5-1.98.13-.54-.36-.81-1.03-.81-2v-96.62c0-.97.27-1.96.81-2.96.54-1,1.2-1.72,1.98-2.18l9.19-5.38c.85-.5,1.53-.55,2.04-.17.5.39.76,1.07.76,2.04v5.84c1.86-4.2,4.31-8.21,7.33-12.02s6.79-7.03,11.29-9.66c4.11-2.4,7.68-3.66,10.71-3.78,3.03-.11,5.55.77,7.56,2.66,2.02,1.88,3.57,4.6,4.66,8.15,1.08,3.55,1.71,7.81,1.86,12.78.08,1.61.12,3.29.12,5.04s-.04,3.53-.12,5.32c-.08,4.91-.66,9.75-1.75,14.52-1.09,4.77-2.66,9.29-4.71,13.56-2.06,4.27-4.6,8.16-7.62,11.68-3.03,3.52-6.59,6.48-10.71,8.89-4.19,2.45-7.76,3.59-10.71,3.41-2.95-.17-5.35-1.27-7.21-3.3v33.13c0,.97-.25,1.95-.76,2.92-.5.97-1.18,1.71-2.04,2.21l-9.89,5.78ZM774.72,1149.26c3.33-1.95,5.93-4.37,7.8-7.26,1.86-2.89,3.2-6.03,4.01-9.43s1.3-6.89,1.45-10.48c.16-3.01.16-5.93,0-8.76-.16-3.41-.64-6.34-1.45-8.78s-2.15-4.02-4.01-4.73c-1.86-.71-4.46-.09-7.8,1.86-3.18,1.86-5.76,4.29-7.74,7.3-1.98,3.01-3.42,6.21-4.31,9.6-.89,3.39-1.42,6.64-1.57,9.75-.08,1.8-.12,3.67-.12,5.61s.04,3.82.12,5.62c.08,2.87.62,5.36,1.63,7.44,1.01,2.09,2.48,3.44,4.42,4.06,1.94.62,4.46.02,7.57-1.79Z"/>
      <path class="st1" d="M819.87,1164.75c-.78.45-1.44.5-1.98.13-.54-.36-.81-1.03-.81-2v-96.62c0-.97.27-1.96.81-2.96.54-1,1.2-1.72,1.98-2.18l9.19-5.38c.85-.5,1.53-.55,2.04-.17.5.39.76,1.07.76,2.04v5.84c1.86-4.2,4.31-8.21,7.33-12.02s6.79-7.03,11.29-9.66c4.11-2.4,7.68-3.66,10.71-3.78,3.03-.11,5.55.77,7.56,2.66,2.02,1.88,3.57,4.6,4.66,8.15,1.08,3.55,1.71,7.81,1.86,12.78.08,1.61.12,3.29.12,5.04s-.04,3.53-.12,5.32c-.08,4.91-.66,9.75-1.75,14.52-1.09,4.77-2.66,9.29-4.71,13.56-2.06,4.27-4.6,8.16-7.62,11.68-3.03,3.52-6.59,6.48-10.71,8.89-4.19,2.45-7.76,3.59-10.71,3.41-2.95-.17-5.35-1.27-7.21-3.3v33.13c0,.97-.25,1.95-.76,2.92-.5.97-1.18,1.71-2.04,2.21l-9.89,5.78ZM846.17,1107.49c3.33-1.95,5.93-4.37,7.8-7.26,1.86-2.89,3.2-6.03,4.01-9.43.81-3.39,1.3-6.89,1.46-10.48.15-3.01.15-5.93,0-8.76-.16-3.41-.64-6.34-1.46-8.78-.81-2.44-2.15-4.02-4.01-4.73-1.86-.71-4.46-.09-7.8,1.86-3.18,1.86-5.76,4.29-7.74,7.3-1.98,3.01-3.41,6.21-4.31,9.6-.89,3.39-1.42,6.64-1.57,9.75-.08,1.8-.12,3.67-.12,5.61s.04,3.82.12,5.62c.08,2.88.62,5.36,1.63,7.44,1.01,2.09,2.48,3.44,4.42,4.06,1.94.62,4.46.02,7.56-1.79Z"/>
      <path class="st1" d="M905.98,1088.14c-4.03,2.36-7.68,3.49-10.94,3.4-3.26-.09-5.84-1.26-7.74-3.5-1.9-2.25-2.85-5.46-2.85-9.64,0-6.81,2.19-13.52,6.58-20.12,4.38-6.6,10.18-12.69,17.4-18.27l15.94-12.24v-3.07c0-4.09-.82-6.77-2.44-8.06-1.63-1.28-4.42-.77-8.38,1.54-2.79,1.63-5.06,3.67-6.81,6.1-1.75,2.43-3.05,5.06-3.9,7.9-.62,1.63-1.51,2.78-2.68,3.46l-9.19,5.38c-.86.5-1.5.58-1.92.25-.43-.33-.64-.99-.64-1.96.08-1.6.58-3.79,1.51-6.58.93-2.78,2.4-5.81,4.42-9.08,2.02-3.27,4.62-6.56,7.8-9.88,3.18-3.32,7.02-6.29,11.52-8.93,4.89-2.86,9.02-4.52,12.39-4.98,3.38-.46,6.07-.02,8.09,1.33,2.02,1.35,3.49,3.46,4.42,6.32.93,2.86,1.4,6.19,1.4,9.98v45.83c0,.97-.27,1.96-.81,2.96-.54,1-1.2,1.73-1.98,2.18l-9.43,5.51c-.85.5-1.53.56-2.04.17-.51-.38-.76-1.07-.76-2.04v-5.69c-1.01,2.44-2.37,4.96-4.07,7.56-1.71,2.6-3.78,5.13-6.23,7.58-2.44,2.45-5.33,4.65-8.67,6.6ZM909.94,1071.96c2.71-1.59,5.18-3.76,7.39-6.51,2.21-2.75,3.96-6.03,5.24-9.85,1.28-3.81,1.92-8.06,1.92-12.73v-3.07l-11.64,9.14c-4.58,3.55-7.99,6.96-10.24,10.22-2.25,3.26-3.38,6.3-3.38,9.13,0,2.14.52,3.66,1.57,4.55,1.05.9,2.38,1.23,4.01,1.01,1.63-.22,3.33-.85,5.12-1.9Z"/>
    </g>
    <path class="st0" d="M1015.22,739.01c-.12-.19-.26-.37-.38-.55-.45-.65-.91-1.31-1.39-1.94-4.64-6.26-10.55-11.62-17.52-15.65l-492.04-284.38c-19.51-11.28-29.26-31-29.26-50.71v343.8c0,11.51,3.35,23.01,10,32.84.12.19.26.37.38.55.45.65.91,1.31,1.39,1.94,4.64,6.26,10.55,11.62,17.52,15.65l492.04,284.37c19.51,11.28,29.26,31,29.26,50.72v-343.8c0-11.51-3.35-23.01-10-32.84Z"/>
    <g class="st3">
      <g>
        <path class="st1" d="M957.59,445.02c-3.72-.7-6.83-1.62-9.33-2.95-2.5-1.32-4.4-2.83-5.7-4.65-1.3-1.81-1.99-3.67-2.07-5.64,0-.36.12-.66.36-.9.24-.24.54-.36.9-.35,1.78.03,3.56.11,5.34.24.52.04.91.18,1.17.43.26.24.49.53.69.87.24.78.7,1.58,1.38,2.39.68.82,1.61,1.54,2.79,2.18,1.18.65,2.67,1.12,4.47,1.46,2.88.54,5.03.58,6.45-.03,1.42-.6,2.13-1.71,2.13-3.35,0-1.16-.38-2.2-1.14-3.09-.76-.9-1.93-1.83-3.51-2.77-1.58-.94-3.67-1.99-6.27-3.05-3-1.21-5.51-2.35-7.53-3.54-2.02-1.19-3.54-2.54-4.56-4.13-1.02-1.59-1.53-3.57-1.53-5.97,0-2.32.63-4.38,1.89-6.13,1.26-1.75,3.06-3.08,5.4-3.9,2.34-.81,5.13-.98,8.37-.38,2.6.48,4.9,1.35,6.9,2.55,2,1.2,3.66,2.59,4.98,4.12,1.32,1.53,2.33,3.07,3.03,4.6.7,1.52,1.07,2.92,1.11,4.17,0,.32-.11.57-.33.76-.22.19-.53.22-.93.09-1.86-.6-3.72-1.15-5.58-1.65-.32-.09-.64-.25-.96-.5-.32-.24-.58-.61-.78-1.1-.24-1.3-1.02-2.56-2.34-3.75-1.32-1.19-3.02-2-5.1-2.39-2.16-.4-3.9-.25-5.22.38-1.32.63-1.98,1.8-1.98,3.48,0,1.12.33,2.09.99,2.9.66.82,1.72,1.6,3.18,2.38,1.46.78,3.39,1.71,5.79,2.86,3.4,1.48,6.18,3.11,8.34,4.73,2.16,1.62,3.74,3.41,4.74,5.28,1,1.87,1.5,3.99,1.5,6.35,0,2.64-.71,4.65-2.13,6.04-1.42,1.4-3.41,2.21-5.97,2.51-2.56.3-5.54.08-8.94-.56Z"/>
        <path class="st1" d="M982.31,451.82c-.4-.16-.74-.43-1.02-.82-.28-.39-.42-.78-.42-1.19v-39.72c0-.4.14-.68.42-.85.28-.17.62-.18,1.02-.02,1.78.71,3.56,1.46,5.34,2.24.44.19.79.49,1.05.88.26.4.39.79.39,1.19v13.68c1.08-.8,2.4-1.24,3.96-1.3,1.56-.06,3.48.46,5.76,1.61,2.44,1.23,4.57,2.9,6.39,4.98,1.82,2.08,3.23,4.41,4.23,6.96,1,2.56,1.5,5.24,1.5,8.04v16.86c0,.4-.14.66-.42.78-.28.12-.62.07-1.02-.15-1.8-1-3.6-1.98-5.4-2.94-.4-.21-.74-.53-1.02-.96-.28-.43-.42-.84-.42-1.24v-16.5c0-2.32-.57-4.44-1.71-6.35-1.14-1.91-2.79-3.41-4.95-4.47-2.08-1.02-3.75-1.14-5.01-.4-1.26.74-1.89,2.29-1.89,4.6v16.5c0,.4-.13.68-.39.85-.26.16-.61.15-1.05-.04-1.78-.78-3.56-1.53-5.34-2.24Z"/>
        <path class="st1" d="M1032.35,479.21c-3.2-2-5.89-4.21-8.07-6.65-2.18-2.44-3.84-5.01-4.98-7.73-1.14-2.72-1.79-5.47-1.95-8.29-.04-.74-.06-1.63-.06-2.67,0-1.04.02-1.91.06-2.61.16-2.67.83-4.66,2.01-5.99,1.18-1.32,2.86-1.89,5.04-1.69,2.18.2,4.83,1.27,7.95,3.22,3.12,1.95,5.77,4.18,7.95,6.68,2.18,2.5,3.86,5.14,5.04,7.91,1.18,2.77,1.85,5.59,2.01,8.45.04.75.06,1.64.06,2.68,0,1.04-.02,1.91-.06,2.6-.16,2.62-.81,4.58-1.95,5.9-1.14,1.32-2.8,1.84-4.98,1.58-2.18-.26-4.87-1.4-8.07-3.4ZM1032.35,473.27c2.12,1.32,3.76,1.68,4.92,1.08,1.16-.61,1.8-2.17,1.92-4.7.04-.57.06-1.34.06-2.3,0-.96-.02-1.75-.06-2.38-.12-2.63-.76-5-1.92-7.09-1.16-2.09-2.8-3.81-4.92-5.13-2.12-1.32-3.76-1.65-4.92-1.01-1.16.65-1.8,2.22-1.92,4.7-.04.58-.06,1.34-.06,2.3,0,.96.02,1.75.06,2.38.12,2.67.76,5.03,1.92,7.09,1.16,2.05,2.8,3.73,4.92,5.06Z"/>
        <path class="st1" d="M1055.57,504.71c-.4-.25-.74-.61-1.02-1.07-.28-.46-.42-.89-.42-1.29,0-13.24,0-26.48,0-39.72,0-.4.14-.65.42-.75.28-.1.62-.03,1.02.23,1.58,1,3.16,2,4.74,2.99.44.28.79.64,1.05,1.08.26.44.39.86.39,1.26v2.4c.96-.68,2.22-.96,3.78-.83,1.56.12,3.5.9,5.82,2.3,2.12,1.28,3.96,2.71,5.52,4.31,1.56,1.6,2.86,3.32,3.9,5.18,1.04,1.86,1.84,3.8,2.4,5.84.56,2.04.88,4.12.96,6.24.04.7.06,1.41.06,2.13,0,.72-.02,1.43-.06,2.12-.04,1.98-.34,3.66-.9,5.04-.56,1.38-1.37,2.4-2.43,3.06-1.06.65-2.37.88-3.93.68-1.56-.2-3.4-.93-5.52-2.21-2.16-1.31-4-2.83-5.52-4.54-1.52-1.72-2.76-3.52-3.72-5.4,0,4.54,0,9.08,0,13.62,0,.4-.13.66-.39.78-.26.11-.61.04-1.05-.24-1.7-1.07-3.4-2.14-5.1-3.21ZM1069.13,495.94c1.72,1.05,3.06,1.49,4.02,1.32.96-.16,1.65-.72,2.07-1.68.42-.95.67-2.12.75-3.52.08-1.15.08-2.35,0-3.6-.08-1.49-.33-2.95-.75-4.4-.42-1.45-1.11-2.83-2.07-4.14-.96-1.32-2.3-2.49-4.02-3.54-1.64-1-2.97-1.44-3.99-1.31-1.02.13-1.76.64-2.22,1.53-.46.89-.73,1.93-.81,3.12-.04.7-.06,1.44-.06,2.24,0,.8.02,1.59.06,2.38.04,1.22.32,2.55.84,3.97.52,1.42,1.28,2.81,2.28,4.15,1,1.34,2.3,2.5,3.9,3.48Z"/>
        <path class="st1" d="M1092.41,526.48c-.4-.21-.74-.53-1.02-.96-.28-.43-.42-.84-.42-1.24v-39.72c0-.4.14-.67.42-.8.28-.13.62-.09,1.02.12,1.58.83,3.16,1.64,4.74,2.42.44.22.79.53,1.05.94.26.41.39.81.39,1.21v2.4c.96-.81,2.22-1.26,3.78-1.37,1.56-.11,3.5.36,5.82,1.36,2.12.91,3.96,2,5.52,3.29,1.56,1.29,2.86,2.74,3.9,4.38,1.04,1.64,1.84,3.41,2.4,5.32.56,1.91.88,3.92.96,6.03.04.69.06,1.4.06,2.12,0,.72-.02,1.43-.06,2.14-.04,1.99-.34,3.74-.9,5.25-.56,1.51-1.37,2.71-2.43,3.58-1.06.88-2.37,1.38-3.93,1.49-1.56.11-3.4-.28-5.52-1.19-2.16-.93-4-2.16-5.52-3.65-1.52-1.49-2.76-3.12-3.72-4.87v13.62c0,.4-.13.67-.39.83-.26.15-.61.12-1.05-.1-1.7-.84-3.4-1.71-5.1-2.6ZM1105.97,515.85c1.72.77,3.06.97,4.02.63.96-.34,1.65-1.03,2.07-2.06.42-1.03.67-2.25.75-3.66.08-1.17.08-2.37,0-3.6-.08-1.47-.33-2.89-.75-4.26-.42-1.37-1.11-2.62-2.07-3.76-.96-1.14-2.3-2.08-4.02-2.85-1.64-.73-2.97-.97-3.99-.69-1.02.28-1.76.89-2.22,1.85-.46.96-.73,2.04-.81,3.24-.04.7-.06,1.45-.06,2.25,0,.8.02,1.59.06,2.37.04,1.22.32,2.51.84,3.86.52,1.35,1.28,2.63,2.28,3.82,1,1.19,2.3,2.15,3.9,2.87Z"/>
        <path class="st1" d="M1136.81,532.36c-2.08-.4-3.96-1.23-5.64-2.46-1.68-1.23-3.01-2.7-3.99-4.35-.98-1.66-1.47-3.36-1.47-5.07,0-2.8,1.13-4.68,3.39-5.74,2.26-1.06,5.25-1.44,8.97-1.33,2.74.09,5.48.07,8.22-.08v-1.26c0-1.68-.42-3.02-1.26-4.03-.84-1.01-2.28-1.63-4.32-1.94-1.44-.22-2.61-.14-3.51.27-.9.41-1.57,1.04-2.01,1.91-.32.45-.78.62-1.38.48-1.58-.35-3.16-.73-4.74-1.15-.44-.12-.77-.33-.99-.63-.22-.3-.33-.65-.33-1.05.04-.63.3-1.34.78-2.13.48-.79,1.24-1.48,2.28-2.08,1.04-.6,2.38-1.01,4.02-1.26,1.64-.26,3.62-.17,5.94.18,2.52.38,4.65.91,6.39,1.68,1.74.76,3.13,1.66,4.17,2.74,1.04,1.08,1.8,2.31,2.28,3.71.48,1.4.72,2.88.72,4.44v18.84c0,.4-.14.74-.42,1.02-.28.28-.62.42-1.02.41-1.62-.03-3.24-.1-4.86-.22-.44-.03-.79-.2-1.05-.5-.26-.3-.39-.65-.39-1.05v-2.34c-.52.71-1.22,1.36-2.1,1.92-.88.56-1.95.97-3.21,1.21-1.26.24-2.75.2-4.47-.12ZM1138.85,527.03c1.4.24,2.67.13,3.81-.32,1.14-.45,2.04-1.28,2.7-2.47.66-1.19.99-2.75.99-4.67v-1.26c-2,.14-4,.21-6,.22-2.36,0-4.12.22-5.28.78-1.16.56-1.74,1.4-1.74,2.56,0,.88.27,1.69.81,2.43.54.74,1.23,1.34,2.07,1.81.84.47,1.72.78,2.64.94Z"/>
      </g>
    </g>
  </g>
</svg>